<svg width="32" height="32" viewBox="0 0 32 32" fill="none" xmlns="http://www.w3.org/2000/svg">
<mask id="mask0_235_349" style="mask-type:alpha" maskUnits="userSpaceOnUse" x="0" y="0" width="32" height="32">
<rect width="32" height="32" fill="#D9D9D9"/>
</mask>
<g mask="url(#mask0_235_349)">
<path d="M26.2564 26H19.641C19.641 25.6667 19.6297 25.3333 19.607 25C19.5844 24.6667 19.5504 24.3334 19.5051 24H26.2564C26.376 24 26.4743 23.9616 26.5513 23.8846C26.6282 23.8077 26.6667 23.7094 26.6667 23.5897V8.41033C26.6667 8.29066 26.6282 8.19236 26.5513 8.11543C26.4743 8.03849 26.376 8.00003 26.2564 8.00003H5.74364C5.62397 8.00003 5.52567 8.03849 5.44874 8.11543C5.37181 8.19236 5.33334 8.29066 5.33334 8.41033V9.82826C5.00001 9.78295 4.66669 9.74897 4.33337 9.72633C4.00004 9.70368 3.66671 9.69236 3.33337 9.69236V8.41033C3.33337 7.74751 3.56939 7.1801 4.04141 6.7081C4.51341 6.23607 5.08082 6.00006 5.74364 6.00006H26.2564C26.9192 6.00006 27.4866 6.23607 27.9586 6.7081C28.4306 7.1801 28.6666 7.74751 28.6666 8.41033V23.5897C28.6666 24.2526 28.4306 24.82 27.9586 25.292C27.4866 25.764 26.9192 26 26.2564 26ZM3.33337 26V22.718C4.23935 22.718 5.01285 23.0385 5.65387 23.6795C6.29487 24.3205 6.61537 25.094 6.61537 26H3.33337ZM9.53847 26C9.53847 24.2838 8.93335 22.8248 7.72311 21.6231C6.51286 20.4214 5.04962 19.812 3.33337 19.7949V17.7949C5.61713 17.7949 7.55557 18.591 9.14871 20.1832C10.7419 21.7754 11.5384 23.7143 11.5384 26H9.53847ZM14.718 26C14.718 24.4205 14.4184 22.941 13.8192 21.5615C13.2201 20.1821 12.4073 18.9791 11.3808 17.9526C10.3543 16.9261 9.15132 16.1133 7.77187 15.5141C6.39241 14.915 4.91291 14.6154 3.33337 14.6154V12.6155C5.18466 12.6155 6.92082 12.965 8.54184 13.6641C10.1629 14.3631 11.5813 15.3206 12.797 16.5363C14.0128 17.7521 14.9702 19.1705 15.6693 20.7915C16.3684 22.4125 16.7179 24.1487 16.7179 26H14.718Z" fill="white"/>
</g>
</svg>
